<svg xmlns="http://www.w3.org/2000/svg" xmlns:xlink="http://www.w3.org/1999/xlink" width="1080" zoomAndPan="magnify" viewBox="0 0 810 809.999993" height="1080" preserveAspectRatio="xMidYMid meet" version="1.0"><defs><clipPath id="f5304811b3"><path d="M 91 310 L 719 310 L 719 429.691406 L 91 429.691406 Z M 91 310 " clip-rule="nonzero"/></clipPath></defs><g clip-path="url(#f5304811b3)"><path fill="#7c3aed" d="M 716.335938 376.890625 C 716.320312 376.882812 716.246094 376.84375 716.144531 376.789062 L 684.945312 319.097656 C 683.863281 317.085938 681.347656 316.335938 679.339844 317.425781 C 677.328125 318.515625 676.578125 321.023438 677.664062 323.039062 L 703.371094 370.574219 C 675.792969 357.820312 606.398438 329.183594 516.238281 316.867188 C 447.390625 307.464844 380.03125 309.25 316.039062 322.179688 C 236.007812 338.347656 161.070312 372.074219 93.300781 422.425781 C 91.46875 423.785156 91.085938 426.378906 92.449219 428.214844 C 93.324219 429.394531 94.710938 429.972656 96.078125 429.875 C 96.835938 429.820312 97.582031 429.554688 98.238281 429.070312 C 164.96875 379.492188 238.738281 346.269531 317.496094 330.332031 C 380.542969 317.574219 446.929688 315.789062 514.820312 325.03125 C 600.308594 336.667969 666.84375 363.136719 696.128906 376.363281 C 683.25 376.285156 663.605469 378 635.898438 384.949219 C 633.679688 385.503906 632.332031 387.753906 632.886719 389.96875 C 633.382812 391.949219 635.230469 393.238281 637.203125 393.09375 C 637.433594 393.074219 637.671875 393.039062 637.910156 392.976562 C 690.972656 379.671875 713.007812 386.320312 713.199219 386.386719 C 714.808594 386.917969 716.585938 386.414062 717.675781 385.113281 C 718.589844 384.019531 718.859375 382.550781 718.445312 381.222656 C 718.730469 379.519531 717.945312 377.753906 716.335938 376.890625 " fill-opacity="1" fill-rule="nonzero"/></g></svg>